<svg xmlns="http://www.w3.org/2000/svg" id="Layer_1" viewBox="0 0 50 50"><defs><style> .st0 { fill: #0e75bc; fill-rule: evenodd; } </style></defs><path class="st0" d="M28.7,37.9c1.5,0,2.6-.8,3.3-2.2.3-.9.4-1.7.2-2.5,0-.3-.2-.7-.4-1-.2-.4-.6-.6-1-.8-1.1-.4-2.2-.6-3.4-.5-.4,0-.8.2-1.2.4-.3.2-.5.5-.7.7,0,0-.2.2-.3.4-.2.3-.5.4-.8.2-2.6-1.1-4.9-3.3-6-6-.1-.3,0-.6.2-.8.1-.1.3-.2.4-.3.3-.2.5-.4.7-.7.3-.4.4-.7.4-1.2,0-1.2-.1-2.3-.5-3.4-.2-.4-.4-.7-.8-1-.3-.2-.6-.4-1-.4-.7-.2-1.6-.1-2.5.2-1.4.7-2.1,1.8-2.2,3.3.5,8.4,7,14.8,15.4,15.4h0ZM35.8,12.8l.8,2.3c0,.2,0,.5-.3.6-.2,0-.5,0-.6-.3l-1.3-3.7c0-.2,0-.4,0-.5.1-.1.2-.1.4-.1l3.9.4c.2,0,.4.2.4.5,0,.2-.2.4-.5.4l-2.4-.3c3.2,2.7,5.2,6.3,5.9,10.2.8,4.3-.1,8.9-2.8,12.8,0,0,0,0,0,0-2.7,3.9-6.8,6.3-11.1,7-4.3.8-9-.1-12.9-2.9-.2-.1-.2-.4-.1-.6.1-.2.4-.2.6-.1,3.7,2.6,8.1,3.4,12.2,2.7,4.1-.7,8-3,10.6-6.7,2.6-3.7,3.4-8.1,2.7-12.2-.7-3.7-2.5-7.1-5.6-9.7h0ZM13.7,36.1c.5.3.6.9.2,1.4-.3.5-.9.6-1.4.2-.5-.3-.6-.9-.2-1.4s.9-.6,1.4-.2ZM11.7,33.5c-.5-.3-1.1-.2-1.4.2-.3.5-.2,1.1.2,1.4s1.1.2,1.4-.2c.3-.5.2-1.1-.2-1.4ZM10.2,30.6c-.5-.3-1.1-.2-1.4.2-.3.5-.2,1.1.2,1.4.5.3,1.1.2,1.4-.2.3-.5.2-1.1-.2-1.4ZM9.3,27.4c-.5-.3-1.1-.2-1.4.2-.3.5-.2,1.1.2,1.4.5.3,1.1.2,1.4-.2.3-.5.2-1.1-.2-1.4ZM9.1,24.2c-.5-.3-1.1-.2-1.4.2-.3.5-.2,1.1.2,1.4.5.3,1.1.2,1.4-.2.3-.5.2-1.1-.2-1.4h0ZM9.5,20.9c-.5-.3-1.1-.2-1.4.2-.3.5-.2,1.1.2,1.4.5.3,1.1.2,1.4-.2.3-.5.2-1.1-.2-1.4ZM10.5,17.8c-.5-.3-1.1-.2-1.4.2-.3.5-.2,1.1.2,1.4.5.3,1.1.2,1.4-.2.3-.5.2-1.1-.2-1.4ZM12.1,14.9c-.5-.3-1.1-.2-1.4.2s-.2,1.1.2,1.4c.5.3,1.1.2,1.4-.2.3-.5.2-1.1-.2-1.4ZM14.3,12.4c-.5-.3-1.1-.2-1.4.2-.3.5-.2,1.1.2,1.4.5.3,1.1.2,1.4-.2.3-.5.2-1.1-.2-1.4ZM16.8,10.4c-.5-.3-1.1-.2-1.4.2-.3.5-.2,1.1.2,1.4.5.3,1.1.2,1.4-.2.3-.5.2-1.1-.2-1.4ZM19.8,8.9c-.5-.3-1.1-.2-1.4.2-.3.5-.2,1.1.2,1.4.5.3,1.1.2,1.4-.2.3-.5.2-1.1-.2-1.4ZM22.9,8c-.5-.3-1.1-.2-1.4.2-.3.5-.2,1.1.2,1.4s1.1.2,1.4-.2c.3-.5.2-1.1-.2-1.4ZM26.2,7.7c-.5-.3-1.1-.2-1.4.2-.3.5-.2,1.1.2,1.4.5.3,1.1.2,1.4-.2.3-.5.2-1.1-.2-1.4ZM29.5,8.1c-.5-.3-1.1-.2-1.4.2-.3.5-.2,1.1.2,1.4.5.3,1.1.2,1.4-.2.3-.5.2-1.1-.2-1.4ZM32.6,9.2c-.5-.3-1.1-.2-1.4.2-.3.5-.2,1.1.2,1.4.5.3,1.1.2,1.4-.2.3-.5.2-1.1-.2-1.4ZM30.4,15.2c3.2,0,5.8,2.6,5.8,5.8s-2.6,5.8-5.8,5.8c-4.2,0-6.3,0-6.3,0l1.9-2c-.9-1-1.4-2.4-1.4-3.8,0-3.2,2.6-5.8,5.8-5.8h0ZM30.4,23.2c.3,0,.6.1.8.3.2.2.3.5.3.8s-.1.6-.3.8-.5.3-.8.3-.6-.1-.8-.3c-.2-.2-.3-.5-.3-.8s.1-.6.3-.8c.2-.2.5-.3.8-.3ZM30.5,24.1s0,0,0,.2,0,.1,0,.2,0,0-.2,0-.1,0-.2,0,0,0,0-.2,0-.1,0-.2,0,0,.2,0,.1,0,.2,0ZM30.6,22s0,0,0,.1c0,0,0,0-.1,0s0,0-.1,0c0,0,0,0,0-.1l-.5-3.6c0,0,0-.2,0-.3,0,0,0-.2.1-.2,0,0,.1-.1.2-.2,0,0,.2,0,.3,0h0c.1,0,.2,0,.3,0s.2,0,.2.2c0,0,.1.2.1.2,0,0,0,.2,0,.3l-.5,3.6ZM31.4,21.9v.2c0,.3-.2.5-.4.6-.2.2-.4.3-.7.3s-.5,0-.7-.3c-.2-.2-.3-.4-.3-.6l-.5-3.6c0-.2,0-.4,0-.6,0-.2.2-.4.3-.6.1-.2.3-.3.5-.4s.4-.1.6-.1h0c.2,0,.4,0,.6.1s.4.2.5.4.3.4.3.6c0,.2,0,.4,0,.6l-.5,3.4Z"></path></svg>